<?xml version="1.0" encoding="utf-8"?>
<!-- Generator: Adobe Illustrator 15.0.0, SVG Export Plug-In . SVG Version: 6.00 Build 0)  -->
<!DOCTYPE svg PUBLIC "-//W3C//DTD SVG 1.1//EN" "http://www.w3.org/Graphics/SVG/1.1/DTD/svg11.dtd">
<svg version="1.1"
	 id="svg22133" sodipodi:docname="engrenage.svg" inkscape:version="0.48.3.1 r9886" xmlns:sodipodi="http://sodipodi.sourceforge.net/DTD/sodipodi-0.dtd" xmlns:inkscape="http://www.inkscape.org/namespaces/inkscape" xmlns:rdf="http://www.w3.org/1999/02/22-rdf-syntax-ns#" xmlns:svg="http://www.w3.org/2000/svg" xmlns:cc="http://creativecommons.org/ns#" xmlns:dc="http://purl.org/dc/elements/1.1/"
	 xmlns="http://www.w3.org/2000/svg" xmlns:xlink="http://www.w3.org/1999/xlink" x="0px" y="0px" width="111px" height="97px"
	 viewBox="-38.5 -36.183 111 97" enable-background="new -38.5 -36.183 111 97" xml:space="preserve">
<path fill="#333333" d="M14.366,55.387c-0.811,0-1.604-0.364-2.132-1.036L-32.397-2.487c-0.64-0.815-0.759-1.926-0.306-2.858
	c0.453-0.932,1.399-1.524,2.437-1.524h23.507l-5.396-9.044c-0.766-1.284-0.346-2.947,0.94-3.715
	c1.283-0.764,2.946-0.348,3.715,0.939L0.34-5.547c0.499,0.836,0.509,1.878,0.028,2.725C-0.114-1.974-1.014-1.45-1.988-1.45h-22.707
	L8.532,40.863L-0.375,6.192c-0.372-1.45,0.501-2.926,1.95-3.299c1.459-0.375,2.927,0.502,3.299,1.95l12.115,47.162
	c0.013,0.055,0.026,0.105,0.036,0.16c0.011-0.058,0.024-0.117,0.04-0.176L29.48,4.827c0.382-1.448,1.877-2.309,3.31-1.93
	c1.449,0.38,2.312,1.863,1.932,3.311L25.27,42.105l32.759-37.76c0.984-1.132,2.695-1.248,3.824-0.271
	c1.131,0.98,1.25,2.692,0.27,3.821L21.732,54.456c-0.827,0.953-2.195,1.207-3.312,0.619c-0.745-0.394-1.243-1.097-1.395-1.883
	c-0.157,0.812-0.682,1.529-1.461,1.917C15.181,55.295,14.771,55.387,14.366,55.387z"/>
<path fill="#333333" d="M64.314-1.45h-27.67c-0.959,0-1.846-0.505-2.334-1.331c-0.487-0.825-0.502-1.847-0.04-2.686l7.235-13.141
	c0.72-1.31,2.37-1.787,3.679-1.066c1.312,0.722,1.791,2.369,1.068,3.68L41.23-6.869h17.486L46.883-21.827h-59.846l-9.604,10.36
	c-1.017,1.099-2.73,1.163-3.83,0.145c-1.096-1.018-1.163-2.732-0.145-3.83l10.409-11.227c0.514-0.553,1.232-0.867,1.987-0.867
	h62.339c0.829,0,1.61,0.378,2.124,1.027L66.438-5.843c0.646,0.815,0.769,1.927,0.314,2.863C66.301-2.045,65.354-1.45,64.314-1.45z"
	/>
<path fill="#333333" d="M28.39-1.45H5.659c-0.953,0-1.835-0.501-2.325-1.317C2.845-3.586,2.821-4.6,3.271-5.44l7.048-13.141
	c0.708-1.316,2.35-1.811,3.667-1.108c1.319,0.708,1.815,2.351,1.108,3.668l-4.909,9.152H23.86l-4.907-9.152
	c-0.707-1.317-0.212-2.96,1.107-3.668c1.32-0.712,2.962-0.208,3.668,1.108l7.05,13.141c0.45,0.839,0.428,1.854-0.063,2.672
	C30.227-1.951,29.342-1.45,28.39-1.45z"/>
</svg>
