<?xml version="1.0" encoding="utf-8"?>
<!-- Generator: Adobe Illustrator 15.0.0, SVG Export Plug-In . SVG Version: 6.00 Build 0)  -->
<!DOCTYPE svg PUBLIC "-//W3C//DTD SVG 1.1//EN" "http://www.w3.org/Graphics/SVG/1.1/DTD/svg11.dtd">
<svg version="1.1" id="Layer_1" xmlns="http://www.w3.org/2000/svg" xmlns:xlink="http://www.w3.org/1999/xlink" x="0px" y="0px"
	 width="100px" height="82.428px" viewBox="0 0 100 82.428" enable-background="new 0 0 100 82.428" xml:space="preserve">
<path fill="#333333" d="M90.702,27.135c-3.132,0-5.673,2.541-5.673,5.661c0,3.119,2.541,5.661,5.673,5.661
	c3.118,0,5.659-2.542,5.659-5.661C96.361,29.676,93.82,27.135,90.702,27.135z"/>
<path fill="#333333" d="M9.31,27.135c-3.131,0-5.673,2.541-5.673,5.661c0,3.119,2.542,5.661,5.673,5.661
	c3.119,0,5.661-2.542,5.661-5.661C14.971,29.676,12.429,27.135,9.31,27.135z"/>
<path fill="#333333" d="M73.854,16.837c-4.648,0-8.418,3.782-8.418,8.431c0,4.643,3.77,8.419,8.418,8.419s8.431-3.776,8.431-8.419
	C82.283,20.619,78.502,16.837,73.854,16.837z"/>
<path fill="#333333" d="M100,68.071h-9.6V50.403c0-3.041-0.892-5.859-2.324-8.311c0.844-0.246,1.711-0.422,2.626-0.422
	c5.118,0,9.298,4.18,9.298,9.311V68.071z"/>
<path fill="#333333" d="M26.147,16.837c-4.649,0-8.431,3.782-8.431,8.431c0,4.643,3.781,8.419,8.431,8.419
	c4.637,0,8.418-3.776,8.418-8.419C34.565,20.619,30.784,16.837,26.147,16.837z"/>
<path fill="#333333" d="M9.31,41.671c0.915,0,1.771,0.176,2.613,0.422c-1.445,2.451-2.324,5.27-2.324,8.311v17.668H0v-17.09
	C0,45.851,4.179,41.671,9.31,41.671z"/>
<path fill="#333333" d="M49.994,0c-6.865,0-12.453,5.588-12.453,12.453c0,6.871,5.588,12.465,12.453,12.465
	s12.465-5.594,12.465-12.465C62.459,5.588,56.859,0,49.994,0z"/>
<path fill="#333333" d="M87.316,74.647H72.611V47.767c0-3.697-0.975-7.137-2.553-10.22c1.205-0.355,2.469-0.608,3.793-0.608
	c7.42,0,13.465,6.041,13.465,13.464V74.647z"/>
<path fill="#333333" d="M27.376,47.767v26.881H12.682V50.403c0-7.426,6.034-13.465,13.465-13.465c1.324,0,2.577,0.253,3.781,0.608
	C28.352,40.63,27.376,44.067,27.376,47.767z"/>
<path fill="#333333" d="M30.459,82.428h39.07V47.767c0-10.773-8.77-19.536-19.535-19.536c-10.779,0-19.535,8.762-19.535,19.536
	V82.428z"/>
</svg>
