<?xml version="1.0" encoding="utf-8"?>
<!-- Generator: Adobe Illustrator 15.0.0, SVG Export Plug-In . SVG Version: 6.00 Build 0)  -->
<!DOCTYPE svg PUBLIC "-//W3C//DTD SVG 1.1//EN" "http://www.w3.org/Graphics/SVG/1.1/DTD/svg11.dtd">
<svg version="1.1" id="Layer_1" xmlns="http://www.w3.org/2000/svg" xmlns:xlink="http://www.w3.org/1999/xlink" x="0px" y="0px"
	 width="100px" height="93.761px" viewBox="0 0 100 93.761" enable-background="new 0 0 100 93.761" xml:space="preserve">
<g id="Your_Icon">
	<path fill="#333333" d="M95.562,18.485H74.777C67.671,10.951,59.729,7.128,51.171,7.128c-14.089,0-24.421,10.571-25.166,11.356
		H4.859c-2.566,0-4.647,2.079-4.647,4.646v61.87c0,2.564,2.08,4.647,4.647,4.647h90.704c2.565,0,4.648-2.081,4.648-4.647V23.13
		C100.212,20.564,98.129,18.485,95.562,18.485z M51.232,16.422c2.879,0.011,5.703,0.708,8.455,2.062H42.132
		C44.806,17.295,47.9,16.417,51.232,16.422z M90.184,27.779l-9.996,23.186h-9.021v-3.081h-7.949v3.081H38.223v-3.081h-7.949v3.081
		H20.23l-9.994-23.186H90.184z M90.915,80.354H9.507V41.741l5.84,13.547c0.49,1.137,1.607,1.873,2.845,1.873h12.083v2.647h7.949
		v-2.647h24.992v2.647h7.948v-2.647h11.064c1.237,0,2.354-0.735,2.845-1.873l5.847-13.557v38.622L90.915,80.354L90.915,80.354z"/>
</g>
</svg>
